<svg xmlns="http://www.w3.org/2000/svg" width="1400" height="760" viewBox="0 0 1400 760" role="img" aria-labelledby="title desc">
  <title id="title">Seasonal demand forecasting slide excerpt</title>
  <desc id="desc">Slide-style visual showing seasonal demand patterns for Amoxicillin and Fexofenadine and the recommendation to use Holt-Winters forecasting.</desc>
  <rect width="1400" height="760" fill="#dbeafe"/>
  <style>
    .navy{fill:#172747}.orange{fill:#c75016}.cream{fill:#f5eadf}.panel{fill:#fffaf5;stroke:#e46f12;stroke-width:3}.row1{fill:#f8f6f3}.row2{fill:#dcecff}.label{font:700 22px Arial,sans-serif;fill:#c75016}.body{font:21px Arial,sans-serif;fill:#2e3542}.small{font:17px Arial,sans-serif;fill:#555}.tiny{font:14px Arial,sans-serif;fill:#555}.white{fill:#fff}.metric{font:700 33px Arial,sans-serif;fill:#dc5e1c}.hdr{font:700 46px Arial,sans-serif;fill:#fff}.subhdr{font:700 23px Arial,sans-serif;fill:#fff}.axis{stroke:#7a7a7a;stroke-width:2}.arrow{stroke:#df7600;stroke-width:7;fill:none;stroke-linecap:round;marker-end:url(#arrow)}
  </style>
  <defs><marker id="arrow" markerWidth="10" markerHeight="10" refX="8" refY="3" orient="auto" markerUnits="strokeWidth"><path d="M0,0 L0,6 L9,3 z" fill="#df7600"/></marker></defs>
  <rect class="navy" width="1400" height="92"/><text class="hdr" x="700" y="61" text-anchor="middle">Seasonal Demand Forecasting</text>
  <rect class="orange" x="22" y="92" width="672" height="54"/><rect class="orange" x="696" y="92" width="682" height="54"/>
  <text class="subhdr" x="358" y="128" text-anchor="middle">AMOXICILLIN 500mg</text><text class="subhdr" x="1037" y="128" text-anchor="middle">FEXOFENADINE 120mg</text>
  <rect class="panel" x="22" y="146" width="672" height="246"/><rect class="panel" x="696" y="146" width="682" height="246"/>
  <g transform="translate(70 190)">
    <line class="axis" x1="0" y1="150" x2="315" y2="150"/><line class="axis" x1="0" y1="0" x2="0" y2="150"/>
    <g fill="#ff9a3d"><rect x="18" y="68" width="28" height="82"/><rect x="58" y="35" width="28" height="115"/><rect x="98" y="24" width="28" height="126"/><rect x="138" y="35" width="28" height="115"/><rect x="178" y="88" width="28" height="62"/><rect x="218" y="75" width="28" height="75"/><rect x="258" y="108" width="28" height="42"/><rect x="298" y="100" width="28" height="50"/></g>
    <g fill="#e66d00"><rect x="338" y="115" width="28" height="35"/><rect x="378" y="0" width="28" height="150"/><rect x="418" y="20" width="28" height="130"/><rect x="458" y="28" width="28" height="122"/></g>
    <text class="tiny" x="18" y="170">Jan</text><text class="tiny" x="58" y="170">Feb</text><text class="tiny" x="98" y="170">Mar</text><text class="tiny" x="138" y="170">Apr</text><text class="tiny" x="178" y="170">May</text><text class="tiny" x="218" y="170">Jun</text><text class="tiny" x="258" y="170">Jul</text><text class="tiny" x="298" y="170">Aug</text><text class="tiny" x="338" y="170">Sep</text><text class="tiny" x="378" y="170">Oct</text><text class="tiny" x="418" y="170">Nov</text><text class="tiny" x="458" y="170">Dec</text>
    <text class="tiny" x="20" y="58">513</text><text class="tiny" x="58" y="25">732</text><text class="tiny" x="98" y="14">801</text><text class="tiny" x="138" y="25">731</text><text class="tiny" x="178" y="78">393</text><text class="tiny" x="218" y="65">481</text><text class="tiny" x="258" y="98">276</text><text class="tiny" x="298" y="90">319</text><text class="tiny" x="338" y="105">226</text><text class="tiny" x="378" y="-8">945</text><text class="tiny" x="418" y="10">852</text><text class="tiny" x="458" y="18">822</text>
    <text class="label" x="240" y="55">Freshers Flu Season</text><path class="arrow" d="M380,12 C345,-20 322,0 318,24"/>
  </g>
  <rect class="navy" x="430" y="214" width="235" height="92"/><text class="metric" x="548" y="252" text-anchor="middle">CV = 0.42</text><text class="subhdr" x="548" y="288" text-anchor="middle">Oct-Dec spike</text>
  <g transform="translate(760 190)">
    <line class="axis" x1="0" y1="150" x2="335" y2="150"/><line class="axis" x1="0" y1="0" x2="0" y2="150"/>
    <g fill="#ff9a3d"><rect x="18" y="83" width="28" height="67"/><rect x="58" y="100" width="28" height="50"/><rect x="98" y="40" width="28" height="110"/><rect x="138" y="37" width="28" height="113"/><rect x="178" y="4" width="28" height="146"/><rect x="218" y="46" width="28" height="104"/><rect x="258" y="32" width="28" height="118"/><rect x="298" y="85" width="28" height="65"/><rect x="338" y="72" width="28" height="78"/><rect x="378" y="72" width="28" height="78"/><rect x="418" y="45" width="28" height="105"/><rect x="458" y="66" width="28" height="84"/></g>
    <text class="tiny" x="18" y="170">Jan</text><text class="tiny" x="58" y="170">Feb</text><text class="tiny" x="98" y="170">Mar</text><text class="tiny" x="138" y="170">Apr</text><text class="tiny" x="178" y="170">May</text><text class="tiny" x="218" y="170">Jun</text><text class="tiny" x="258" y="170">Jul</text><text class="tiny" x="298" y="170">Aug</text><text class="tiny" x="338" y="170">Sep</text><text class="tiny" x="378" y="170">Oct</text><text class="tiny" x="418" y="170">Nov</text><text class="tiny" x="458" y="170">Dec</text>
    <text class="tiny" x="18" y="73">674</text><text class="tiny" x="58" y="90">506</text><text class="tiny" x="98" y="30">1102</text><text class="tiny" x="138" y="27">1128</text><text class="tiny" x="178" y="-6">1464</text><text class="tiny" x="218" y="36">1042</text><text class="tiny" x="258" y="22">1172</text><text class="tiny" x="298" y="75">652</text><text class="tiny" x="338" y="62">780</text><text class="tiny" x="378" y="62">780</text><text class="tiny" x="418" y="35">1046</text><text class="tiny" x="458" y="56">836</text>
    <text class="label" x="300" y="40">Pollen peaks</text><path class="arrow" d="M248,-6 C290,-28 322,-10 336,10"/>
  </g>
  <rect class="navy" x="1086" y="214" width="240" height="92"/><text class="metric" x="1206" y="252" text-anchor="middle">CV = 0.29</text><text class="subhdr" x="1206" y="288" text-anchor="middle">Mar - Jul Peak</text>
  <rect class="navy" x="560" y="372" width="310" height="58"/><text class="subhdr" x="715" y="409" text-anchor="middle">Holt-Winters needed</text><path class="arrow" d="M520,330 C570,355 585,370 606,392"/><path class="arrow" d="M880,428 C930,444 970,420 982,390"/>
  <g transform="translate(22 440)">
    <rect class="row1" x="0" y="0" width="672" height="47"/><rect class="row2" x="0" y="57" width="672" height="47"/><rect class="row1" x="0" y="114" width="672" height="47"/><rect class="row2" x="0" y="171" width="672" height="47"/><rect class="row1" x="0" y="228" width="672" height="47"/><rect class="row2" x="0" y="285" width="672" height="47"/>
    <g class="orange"><rect x="28" y="8" width="42" height="32"/><rect x="28" y="65" width="42" height="32"/><rect x="28" y="122" width="42" height="32"/><rect x="28" y="179" width="42" height="32"/><rect x="28" y="236" width="42" height="32"/><rect x="28" y="293" width="42" height="32"/></g>
    <g class="white" font-family="Arial" font-weight="700" font-size="22"><text x="49" y="32" text-anchor="middle">P</text><text x="49" y="89" text-anchor="middle">I</text><text x="49" y="146" text-anchor="middle">V</text><text x="49" y="203" text-anchor="middle">A</text><text x="49" y="260" text-anchor="middle">S</text><text x="49" y="317" text-anchor="middle">E</text></g>
    <text class="label" x="86" y="31">Purpose</text><text class="body" x="250" y="31">Prevent stockouts during Oct-Dec infection surge</text>
    <text class="label" x="86" y="88">Information</text><text class="body" x="250" y="88">12 months data + academic calendar</text>
    <text class="label" x="86" y="145">Value</text><text class="body" x="250" y="145">High - missed demand affects treatment and recovery</text>
    <text class="label" x="86" y="202">Analysis</text><text class="body" x="250" y="202">Sep 226 to Oct 945, a 4.2x swing</text>
    <text class="label" x="86" y="259">System</text><text class="body" x="250" y="259">Seasonal model needed for routine pharmacy planning</text>
    <text class="label" x="86" y="316">Evaluation</text><text class="body" x="250" y="316">Avoid Oct stockouts without excess stock</text>
  </g>
  <g transform="translate(708 440)">
    <rect class="row1" x="0" y="0" width="670" height="47"/><rect class="row2" x="0" y="57" width="670" height="47"/><rect class="row1" x="0" y="114" width="670" height="47"/><rect class="row2" x="0" y="171" width="670" height="47"/><rect class="row1" x="0" y="228" width="670" height="47"/><rect class="row2" x="0" y="285" width="670" height="47"/>
    <g class="orange"><rect x="28" y="8" width="42" height="32"/><rect x="28" y="65" width="42" height="32"/><rect x="28" y="122" width="42" height="32"/><rect x="28" y="179" width="42" height="32"/><rect x="28" y="236" width="42" height="32"/><rect x="28" y="293" width="42" height="32"/></g>
    <g class="white" font-family="Arial" font-weight="700" font-size="22"><text x="49" y="32" text-anchor="middle">P</text><text x="49" y="89" text-anchor="middle">I</text><text x="49" y="146" text-anchor="middle">V</text><text x="49" y="203" text-anchor="middle">A</text><text x="49" y="260" text-anchor="middle">S</text><text x="49" y="317" text-anchor="middle">E</text></g>
    <text class="label" x="86" y="31">Purpose</text><text class="body" x="250" y="31">Pre-stock before pollen season</text>
    <text class="label" x="86" y="88">Information</text><text class="body" x="250" y="88">12 months data + pollen calendar</text>
    <text class="label" x="86" y="145">Value</text><text class="body" x="250" y="145">Moderate - stockout inconvenient, less clinically urgent</text>
    <text class="label" x="86" y="202">Analysis</text><text class="body" x="250" y="202">Gradual build to May peak of 1,464 units</text>
    <text class="label" x="86" y="259">System</text><text class="body" x="250" y="259">Seasonal model supports pre-season stock build</text>
    <text class="label" x="86" y="316">Evaluation</text><text class="body" x="250" y="316">Meet peak demand without overstocking</text>
  </g>
  <rect class="navy" x="0" y="720" width="1400" height="40"/><text class="subhdr" x="20" y="748">Sources: Ashley Wong (2025); Hyndman and Athanasopoulos (2018); NHS (2025); Ord et al. (2017)</text>
</svg>
